<svg width="1919" height="790" viewBox="0 0 1919 790" fill="none" xmlns="http://www.w3.org/2000/svg">
<path fill-rule="evenodd" clip-rule="evenodd" d="M-1 -3H1919V769.078C1919 769.078 1547.22 677.911 1347.74 686.349C951.166 703.122 907.176 774.515 557.979 785.442C237.062 795.483 -1 712.219 -1 712.219V-3Z" fill="url(#paint0_linear)"/>
<rect opacity="0.1" width="983.896" height="143.129" rx="71.5643" transform="matrix(0.882205 -0.470866 0.52971 0.848179 683.481 555.619)" fill="white"/>
<rect opacity="0.5" width="89.3115" height="10.7346" rx="5.36732" transform="matrix(0.882205 -0.470866 0.52971 0.848179 864.583 389.25)" fill="url(#paint1_linear)"/>
<rect opacity="0.5" width="74.4262" height="14.5687" rx="7.28437" transform="matrix(0.882205 -0.470866 0.52971 0.848179 711.677 497.44)" fill="url(#paint2_linear)"/>
<rect width="74.4262" height="14.5687" rx="7.28437" transform="matrix(0.882205 -0.470866 0.52971 0.848179 1007.36 688.083)" fill="url(#paint3_linear)"/>
<rect opacity="0.05" width="731.191" height="143.129" rx="71.5643" transform="matrix(0.882205 -0.470866 0.52971 0.848179 89.98 341.293)" fill="white"/>
<rect opacity="0.1" width="882.969" height="143.129" rx="71.5643" transform="matrix(0.882205 -0.470866 0.52971 0.848179 1064.22 609.736)" fill="white"/>
<rect opacity="0.05" width="731.191" height="143.129" rx="71.5643" transform="matrix(0.882205 -0.470866 0.52971 0.848179 848.147 596.419)" fill="white"/>
<path opacity="0.1" fill-rule="evenodd" clip-rule="evenodd" d="M-1 671.262C111.555 672.061 182.496 694.698 361.134 722.906C539.773 751.115 940.591 742.578 940.591 742.578C940.591 742.578 401.569 837.642 -1 735.889" fill="white"/>
<path opacity="0.1" fill-rule="evenodd" clip-rule="evenodd" d="M123.682 762.17C123.682 762.17 454.11 720.189 677.711 711.21C901.311 702.231 1215.09 719.394 1215.09 719.394C1215.09 719.394 1125.82 720.749 765.242 767.802C404.661 814.855 123.682 762.17 123.682 762.17Z" fill="white"/>
<path opacity="0.2" fill-rule="evenodd" clip-rule="evenodd" d="M1296.91 715.697C1402.28 696.409 1586.45 686.282 1785.1 705.773V774.753C1785.1 774.753 1472.38 720.245 1296.91 715.697Z" fill="white"/>
<defs>
<linearGradient id="paint0_linear" x1="-946.879" y1="391.761" x2="-385.564" y2="1736.72" gradientUnits="userSpaceOnUse">
<stop stop-color="#250E8A"/>
<stop offset="1" stop-color="#00F9F7"/>
</linearGradient>
<linearGradient id="paint1_linear" x1="89.3115" y1="0" x2="0" y2="0" gradientUnits="userSpaceOnUse">
<stop stop-color="white" stop-opacity="0.01"/>
<stop offset="1" stop-color="#06CCE2"/>
<stop offset="1" stop-color="white"/>
</linearGradient>
<linearGradient id="paint2_linear" x1="74.4262" y1="0" x2="0" y2="0" gradientUnits="userSpaceOnUse">
<stop stop-color="white" stop-opacity="0.01"/>
<stop offset="1" stop-color="#06CCE2"/>
<stop offset="1" stop-color="white"/>
</linearGradient>
<linearGradient id="paint3_linear" x1="74.4262" y1="0" x2="0" y2="0" gradientUnits="userSpaceOnUse">
<stop stop-color="white" stop-opacity="0.01"/>
<stop offset="1" stop-color="#06CCE2"/>
<stop offset="1" stop-color="white"/>
</linearGradient>
</defs>
</svg>
